<svg width="22" height="22" viewBox="0 0 29 29" fill="none" xmlns="http://www.w3.org/2000/svg">
<path d="M21.79 21.79C19.6921 23.3891 17.1375 24.2751 14.5 24.3182C5.90909 24.3182 1 14.5 1 14.5C2.52659 11.6551 4.64394 9.16947 7.21 7.21M11.9227 4.97636C12.7675 4.77863 13.6324 4.67978 14.5 4.68182C23.0909 4.68182 28 14.5 28 14.5C27.255 15.8937 26.3666 17.2058 25.3491 18.415M17.1018 17.1018C16.7647 17.4636 16.3583 17.7537 15.9066 17.9549C15.455 18.1562 14.9675 18.2644 14.4731 18.2731C13.9788 18.2818 13.4877 18.1909 13.0292 18.0057C12.5708 17.8205 12.1543 17.5449 11.8047 17.1953C11.4551 16.8457 11.1795 16.4292 10.9943 15.9708C10.8091 15.5123 10.7182 15.0212 10.7269 14.5269C10.7356 14.0325 10.8438 13.545 11.0451 13.0934C11.2463 12.6417 11.5364 12.2353 11.8982 11.8982" stroke="#A7A3A3" stroke-width="2" stroke-linecap="round" stroke-linejoin="round"/>
<path d="M1 1L28 28" stroke="#A7A3A3" stroke-width="2" stroke-linecap="round" stroke-linejoin="round"/>
</svg>
